<svg xmlns="http://www.w3.org/2000/svg" viewBox="0 0 40 40" class="design-iconfont">
  <path d="M20,4 C28.836556,4 36,11.163444 36,20 C36,28.836556 28.836556,36 20,36 C11.163444,36 4,28.836556 4,20 C4,11.163444 11.163444,4 20,4 Z M20,7 C12.8202983,7 7,12.8202983 7,20 C7,27.1797017 12.8202983,33 20,33 C27.1797017,33 33,27.1797017 33,20 C33,12.8202983 27.1797017,7 20,7 Z M20,11 C20.8284271,11 21.5,11.6715729 21.5,12.5 L21.5,18 L27.5,18 C28.3284271,18 29,18.6715729 29,19.5 C29,20.3284271 28.3284271,21 27.5,21 L21.5,21 L21.5,27.5 C21.5,28.3284271 20.8284271,29 20,29 C19.1715729,29 18.5,28.3284271 18.5,27.5 L18.5,21 L12.5,21 C11.6715729,21 11,20.3284271 11,19.5 C11,18.6715729 11.6715729,18 12.5,18 L18.5,18 L18.5,12.5 C18.5,11.6715729 19.1715729,11 20,11 Z" fill="#949494" fill-rule="nonzero"/>
</svg>
