<svg xmlns="http://www.w3.org/2000/svg" viewBox="0 0 40 40" class="design-iconfont">
  <path d="M33.9110766,6.21744435 C34.4968631,6.80323079 34.4968631,7.75297826 33.9110766,8.3387647 L21.9564656,20.2921045 L34.1143127,32.4495988 C34.7000992,33.0353853 34.7000992,33.9851327 34.1143127,34.5709192 C33.5285263,35.1567056 32.5787788,35.1567056 31.9929924,34.5709192 L19.8354656,22.4131045 L7.74812573,34.5017156 C7.16233929,35.087502 6.21259182,35.087502 5.62680539,34.5017156 C5.04101895,33.9159292 5.04101895,32.9661817 5.62680539,32.3803953 L17.7144656,20.2921045 L5.83004149,8.40796828 C5.24425505,7.82218184 5.24425505,6.87243438 5.83004149,6.28664794 C6.41582792,5.7008615 7.36557539,5.7008615 7.95136183,6.28664794 L19.8354656,18.1711045 L31.7897563,6.21744435 C32.3755427,5.63165792 33.3252902,5.63165792 33.9110766,6.21744435 Z" fill="#949494" fill-rule="evenodd"/>
</svg>
