<svg xmlns="http://www.w3.org/2000/svg" viewBox="0 0 40 40" class="design-iconfont">
  <path d="M10.7384872,7.83615194 C15.8535304,2.72128269 24.1464696,2.72128269 29.2615128,7.83615194 C34.376556,12.9510212 34.3768381,21.2439603 29.2620887,26.3592316 L29.2620887,26.3592316 L20,35.6213203 L10.7378572,26.3591775 C5.6231619,21.2439603 5.62344398,12.9510212 10.7384872,7.83615194 Z M27.1402285,9.95750836 C23.1967499,6.01416388 16.8032501,6.01416388 12.8597715,9.95750836 C8.91629286,13.9008528 8.9160754,20.2943527 12.8592316,24.2379113 L12.8592316,24.2379113 L20,31.3783817 L27.1407143,24.2379654 C31.0122299,20.3660547 31.0824114,14.1325339 27.3514167,10.1750003 L27.3514167,10.1750003 Z M20,11.5971429 C23.0375661,11.5971429 25.5,14.0595768 25.5,17.0971429 C25.5,20.134709 23.0375661,22.5971429 20,22.5971429 C16.9624339,22.5971429 14.5,20.134709 14.5,17.0971429 C14.5,14.0595768 16.9624339,11.5971429 20,11.5971429 Z M20,14.5971429 C18.6192881,14.5971429 17.5,15.716431 17.5,17.0971429 C17.5,18.4778548 18.6192881,19.5971429 20,19.5971429 C21.3807119,19.5971429 22.5,18.4778548 22.5,17.0971429 C22.5,15.716431 21.3807119,14.5971429 20,14.5971429 Z" fill="#949494" fill-rule="nonzero"/>
</svg>
